<?xml version="1.0" standalone="no"?>
<!DOCTYPE svg PUBLIC "-//W3C//DTD SVG 20010904//EN"
 "http://www.w3.org/TR/2001/REC-SVG-20010904/DTD/svg10.dtd">
<svg version="1.0" xmlns="http://www.w3.org/2000/svg"
 width="200.000000pt" height="200.000000pt" viewBox="0 0 200.000000 200.000000"
 preserveAspectRatio="xMidYMid meet">
<metadata>
Created by potrace 1.14, written by Peter Selinger 2001-2017
</metadata>
<g transform="translate(0.000000,200.000000) scale(0.100000,-0.100000)"
fill="#000000" stroke="none">
<path d="M898 1995 c-2 -1 -23 -5 -48 -8 -70 -9 -154 -28 -165 -38 -5 -5 -16
-9 -25 -9 -8 0 -48 -15 -87 -34 -257 -123 -436 -323 -526 -586 -38 -111 -40
-121 -44 -293 -4 -124 -1 -174 12 -235 85 -387 372 -675 765 -768 88 -21 276
-25 375 -7 420 73 739 390 815 808 98 535 -254 1047 -795 1156 -54 10 -268 22
-277 14z"/>
</g>
</svg>
